<svg width="117" height="28" viewBox="0 0 117 28" fill="none" xmlns="http://www.w3.org/2000/svg">
<rect x="0.5" y="0.5" width="87" height="27" rx="3.5" fill="white" stroke="#F6F8FB"/>
<path d="M29.4 19H30.632V9.2H29.4V19ZM33.2932 19H34.4692V15.052C34.4692 13.61 35.1692 12.77 36.3592 12.77C37.4932 12.77 38.0112 13.414 38.0112 14.534V19H39.1872V14.352C39.1872 12.714 38.2632 11.72 36.6812 11.72C35.5752 11.72 34.8472 12.238 34.4692 12.966H34.4132L34.3152 11.846H33.2932V19ZM48.128 19.126C49.668 19.126 50.956 18.37 50.956 17.054C50.956 15.822 50.27 15.29 48.926 14.982L47.806 14.772C47.022 14.646 46.56 14.324 46.56 13.764C46.56 13.064 47.162 12.714 48.03 12.714C48.926 12.714 49.598 13.12 49.64 14.03H50.788C50.788 12.602 49.64 11.72 48.03 11.72C46.448 11.72 45.426 12.574 45.426 13.764C45.426 14.814 46.07 15.528 47.246 15.766L48.674 16.032C49.444 16.2 49.766 16.578 49.766 17.054C49.766 17.74 49.136 18.076 48.128 18.076C47.106 18.076 46.378 17.586 46.378 16.634H45.202C45.244 18.202 46.434 19.126 48.128 19.126ZM55.2923 19H56.3563V17.964H55.5163C54.8723 17.964 54.5783 17.67 54.5783 16.984V12.84H56.3283V11.846H54.5783V9.928H53.4303V11.846H52.2123V12.84H53.4023V17.082C53.4023 18.272 53.8783 19 55.2923 19ZM60.9184 19.126C63.1584 19.126 64.1524 17.474 64.1524 15.43C64.1524 13.372 63.1304 11.72 60.9184 11.72C58.7064 11.72 57.6844 13.372 57.6844 15.43C57.6844 17.488 58.6784 19.126 60.9184 19.126ZM60.9184 18.076C59.4764 18.076 58.8744 16.97 58.8744 15.43C58.8744 13.904 59.4624 12.77 60.9184 12.77C62.3744 12.77 62.9624 13.89 62.9624 15.43C62.9624 16.97 62.3744 18.076 60.9184 18.076ZM68.7937 19.126C70.6557 19.126 71.6077 18.104 71.7477 16.592H70.5717C70.4737 17.544 69.8437 18.09 68.7797 18.09C67.3097 18.09 66.7357 16.928 66.7357 15.43C66.7357 13.96 67.3097 12.77 68.7797 12.77C69.8157 12.77 70.4737 13.344 70.5437 14.296H71.7197C71.6217 12.854 70.6977 11.72 68.7797 11.72C66.6517 11.72 65.5457 13.204 65.5457 15.43C65.5457 17.684 66.6517 19.126 68.7937 19.126ZM73.7073 8.64V19H74.8833V8.64H73.7073ZM76.3953 14.982L79.2933 11.986V11.846H77.9073L74.8833 14.982L78.0193 19H79.3773V18.86L76.3953 14.982Z" fill="#00893A"/>
<path d="M15.9999 7.33334C12.3199 7.33334 9.33325 10.32 9.33325 14C9.33325 17.68 12.3199 20.6667 15.9999 20.6667C19.6799 20.6667 22.6666 17.68 22.6666 14C22.6666 10.32 19.6799 7.33334 15.9999 7.33334ZM15.9999 19.3333C13.0599 19.3333 10.6666 16.94 10.6666 14C10.6666 11.06 13.0599 8.66667 15.9999 8.66667C18.9399 8.66667 21.3333 11.06 21.3333 14C21.3333 16.94 18.9399 19.3333 15.9999 19.3333ZM19.0599 11.0533L14.6666 15.4467L12.9399 13.7267L11.9999 14.6667L14.6666 17.3333L19.9999 12L19.0599 11.0533Z" fill="#00893A"/>
</svg>
