<svg width="117" height="28" viewBox="0 0 117 28" fill="none" xmlns="http://www.w3.org/2000/svg">
<rect x="0.5" y="0.5" width="116" height="27" rx="3.5" fill="white" stroke="#F6F8FB"/>
<path d="M33.18 19.126C36.19 19.126 37.52 16.9 37.52 14.1C37.52 11.286 36.19 9.074 33.18 9.074C30.156 9.074 28.84 11.286 28.84 14.1C28.84 16.9 30.156 19.126 33.18 19.126ZM33.18 17.978C30.856 17.978 30.1 16.074 30.1 14.1C30.1 12.126 30.842 10.222 33.18 10.222C35.504 10.222 36.26 12.126 36.26 14.1C36.26 16.074 35.504 17.978 33.18 17.978ZM41.9893 19.112C43.0953 19.112 43.8233 18.594 44.2013 17.866H44.2573L44.3553 19H45.3773V11.846H44.2013V15.78C44.2013 17.222 43.5013 18.062 42.3113 18.062C41.1773 18.062 40.6593 17.418 40.6593 16.298V11.846H39.4833V16.48C39.4833 18.118 40.4073 19.112 41.9893 19.112ZM50.138 19H51.202V17.964H50.362C49.718 17.964 49.424 17.67 49.424 16.984V12.84H51.174V11.846H49.424V9.928H48.276V11.846H47.058V12.84H48.248V17.082C48.248 18.272 48.724 19 50.138 19ZM59.9613 19.126C62.2013 19.126 63.1953 17.474 63.1953 15.43C63.1953 13.372 62.1733 11.72 59.9613 11.72C57.7493 11.72 56.7273 13.372 56.7273 15.43C56.7273 17.488 57.7213 19.126 59.9613 19.126ZM59.9613 18.076C58.5193 18.076 57.9173 16.97 57.9173 15.43C57.9173 13.904 58.5053 12.77 59.9613 12.77C61.4173 12.77 62.0053 13.89 62.0053 15.43C62.0053 16.97 61.4173 18.076 59.9613 18.076ZM65.5967 19H66.7727V12.826H68.5087V11.846H66.7727V10.6C66.7727 9.9 67.1787 9.508 67.8787 9.508H68.5787V8.5H67.6827C66.3947 8.5 65.5967 9.368 65.5967 10.6V11.846H64.3227V12.826H65.5967V19ZM76.8936 19.126C78.4336 19.126 79.7216 18.37 79.7216 17.054C79.7216 15.822 79.0356 15.29 77.6916 14.982L76.5716 14.772C75.7876 14.646 75.3256 14.324 75.3256 13.764C75.3256 13.064 75.9276 12.714 76.7956 12.714C77.6916 12.714 78.3636 13.12 78.4056 14.03H79.5536C79.5536 12.602 78.4056 11.72 76.7956 11.72C75.2136 11.72 74.1916 12.574 74.1916 13.764C74.1916 14.814 74.8356 15.528 76.0116 15.766L77.4396 16.032C78.2096 16.2 78.5316 16.578 78.5316 17.054C78.5316 17.74 77.9016 18.076 76.8936 18.076C75.8716 18.076 75.1436 17.586 75.1436 16.634H73.9676C74.0096 18.202 75.1996 19.126 76.8936 19.126ZM84.058 19H85.122V17.964H84.282C83.638 17.964 83.344 17.67 83.344 16.984V12.84H85.094V11.846H83.344V9.928H82.196V11.846H80.978V12.84H82.168V17.082C82.168 18.272 82.644 19 84.058 19ZM89.684 19.126C91.924 19.126 92.918 17.474 92.918 15.43C92.918 13.372 91.896 11.72 89.684 11.72C87.472 11.72 86.45 13.372 86.45 15.43C86.45 17.488 87.444 19.126 89.684 19.126ZM89.684 18.076C88.242 18.076 87.64 16.97 87.64 15.43C87.64 13.904 88.228 12.77 89.684 12.77C91.14 12.77 91.728 13.89 91.728 15.43C91.728 16.97 91.14 18.076 89.684 18.076ZM97.5593 19.126C99.4213 19.126 100.373 18.104 100.513 16.592H99.3373C99.2393 17.544 98.6093 18.09 97.5453 18.09C96.0753 18.09 95.5013 16.928 95.5013 15.43C95.5013 13.96 96.0753 12.77 97.5453 12.77C98.5813 12.77 99.2393 13.344 99.3093 14.296H100.485C100.387 12.854 99.4633 11.72 97.5453 11.72C95.4173 11.72 94.3113 13.204 94.3113 15.43C94.3113 17.684 95.4173 19.126 97.5593 19.126ZM102.473 8.64V19H103.649V8.64H102.473ZM105.161 14.982L108.059 11.986V11.846H106.673L103.649 14.982L106.785 19H108.143V18.86L105.161 14.982Z" fill="#F52F2F"/>
<path d="M15.3333 16H16.6666V17.3333H15.3333V16ZM15.3333 10.6667H16.6666V14.6667H15.3333V10.6667ZM15.9933 7.33334C12.3133 7.33334 9.33325 10.32 9.33325 14C9.33325 17.68 12.3133 20.6667 15.9933 20.6667C19.6799 20.6667 22.6666 17.68 22.6666 14C22.6666 10.32 19.6799 7.33334 15.9933 7.33334ZM15.9999 19.3333C13.0533 19.3333 10.6666 16.9467 10.6666 14C10.6666 11.0533 13.0533 8.66667 15.9999 8.66667C18.9466 8.66667 21.3333 11.0533 21.3333 14C21.3333 16.9467 18.9466 19.3333 15.9999 19.3333Z" fill="#F52F2F"/>
</svg>
